<svg width="756" height="721" viewBox="0 0 756 721" fill="none" xmlns="http://www.w3.org/2000/svg">
<path fill-rule="evenodd" clip-rule="evenodd" d="M744.564 337.729L570.732 171.059C542.078 205.844 514.097 242.328 514.097 242.328C477.709 295.331 439.805 305.937 439.805 305.937C368.55 321.077 309.41 305.937 309.41 305.937C352.118 297.675 478.665 134.409 501.458 104.635L403.411 10.6215C403.411 10.6215 383.708 -13.6036 356.417 13.6547L192.658 160.546C192.658 160.546 239.658 159.033 257.851 166.612C257.851 166.612 287.17 175.698 303.35 198.411C303.35 198.411 326.089 242.328 344.29 242.328C344.29 242.328 356.423 268.073 295.755 269.587C295.755 269.587 257.851 266.553 244.21 222.649C244.21 222.649 233.597 174.172 182.052 169.645L7.66694 340.776C7.66694 340.776 -5.9684 352.384 3.1288 360.461H444.344C444.344 360.461 456.471 310.478 485.284 345.309C485.284 345.309 500.447 318.057 518.648 342.276C518.648 342.276 529.247 290.785 565.642 328.663C565.642 328.663 586.866 272.62 614.157 299.885C614.157 299.885 630.836 305.944 636.896 339.256C636.896 339.256 662.672 302.904 676.32 360.468C676.32 360.468 348.815 366.521 113.808 480.088L201.741 566.416C201.741 566.416 511.053 413.465 700.575 378.634C700.575 378.634 464.046 467.975 282.099 642.132L350.337 708.768C350.337 708.768 374.598 737.533 407.949 705.741L749.096 380.14C749.109 380.14 767.304 351.361 744.564 337.729Z" fill="white" fill-opacity="0.15"/>
<path fill-rule="evenodd" clip-rule="evenodd" d="M506.165 100.049C583.333 10.6211 725 60.6491 725 60.6491C696.253 62.1637 628.161 110.65 628.161 110.65C628.161 110.65 596.383 138.878 572.173 170.701L502 104.958L506.165 100.049Z" fill="white" fill-opacity="0.15"/>
</svg>
