<svg width="20" height="23" viewBox="0 0 20 23" fill="none" xmlns="http://www.w3.org/2000/svg">
<path d="M10 4.25V4.94844C12.832 5.39805 15 7.85156 15 10.8125V12.1172C15 13.8906 15.6055 15.6133 16.7109 17L17.293 17.7266C17.5195 18.0078 17.5625 18.3945 17.4063 18.7188C17.25 19.043 16.9219 19.25 16.5625 19.25H0.937507C0.57696 19.25 0.24864 19.043 0.0925462 18.7188C-0.0635866 18.3945 -0.0196803 18.0078 0.205476 17.7266L0.787898 17C1.8961 15.6133 2.50001 13.8906 2.50001 12.1172V10.8125C2.50001 7.85156 4.66798 5.39805 7.50001 4.94844V4.25C7.50001 3.55977 8.0586 3 8.75001 3C9.44141 3 10 3.55977 10 4.25ZM8.43751 6.75C6.19532 6.75 4.37501 8.57031 4.37501 10.8125V12.1172C4.37501 13.9883 3.83282 15.8125 2.82462 17.375H14.6758C13.668 15.8125 13.125 13.9883 13.125 12.1172V10.8125C13.125 8.57031 11.3047 6.75 9.06251 6.75H8.43751ZM11.25 20.5C11.25 21.1289 10.9883 21.8008 10.5195 22.2695C10.0508 22.7383 9.37891 23 8.75001 23C8.08595 23 7.44923 22.7383 6.98048 22.2695C6.51173 21.8008 6.25001 21.1289 6.25001 20.5H11.25Z" fill="white"/>
<path d="M12.114 14.9172C15.98 14.9172 19.114 11.7832 19.114 7.91724C19.114 4.05124 15.98 0.917236 12.114 0.917236C8.24802 0.917236 5.11401 4.05124 5.11401 7.91724C5.11401 11.7832 8.24802 14.9172 12.114 14.9172Z" fill="white"/>
<path d="M15.6372 11.9338H13.6562L10.7278 6.7921V11.9338H8.7347V3.67057H10.7264L13.6492 8.8123V3.67057H15.6358L15.6372 11.9338Z" fill="#0593D2"/>
</svg>
