<svg width="20" height="20" viewBox="0 0 20 20" fill="none" xmlns="http://www.w3.org/2000/svg">
<path d="M17.5204 8.7602C17.5204 10.6933 16.8929 12.4791 15.8357 13.9279L19.6009 17.6973C20.1274 18.2237 20.1274 19.0787 19.6009 19.6052C19.0745 20.1316 18.2195 20.1316 17.6931 19.6052L13.9279 15.8357C12.4791 16.8971 10.6933 17.5204 8.7602 17.5204C3.92103 17.5204 0 13.5994 0 8.7602C0 3.92103 3.92103 0 8.7602 0C13.5994 0 17.5204 3.92103 17.5204 8.7602ZM8.7602 14.825C12.1084 14.825 14.825 12.1084 14.825 8.7602C14.825 5.41195 12.1084 2.69545 8.7602 2.69545C5.41195 2.69545 2.69545 5.41195 2.69545 8.7602C2.69545 12.1084 5.41195 14.825 8.7602 14.825Z" fill="white"/>
</svg>
